
<svg xmlns="http://www.w3.org/2000/svg" version="1.1" xmlns:xlink="http://www.w3.org/1999/xlink" preserveAspectRatio="none" x="0px" y="0px" width="1024px" height="1024px" viewBox="0 0 1024 1024">
<defs>
<g id="Layer0_0_MEMBER_0_MEMBER_0_FILL">
<path fill="#E7E5E5" stroke="none" d="
M 39.15 100.45
L 39.5 116.1 111 116.1
Q 107.15 112.1 108.5 106.4
L 110.65 101.45 39.15 100.45 Z"/>
</g>

<g id="Layer0_0_MEMBER_1_MEMBER_0_FILL">
<path fill="#CECECD" stroke="none" d="
M 40.15 99.7
L 39.15 110.15
Q 42.7 107.35 52.8 105.5 72.7 101.85 109.25 104.1 109.4 102.7 110.75 101.45
L 40.15 99.7 Z"/>
</g>

<g id="Layer0_0_MEMBER_2_MEMBER_0_FILL">
<path fill="#22B1B6" stroke="none" d="
M 38.6 98.65
L 38.55 98.75
Q 36.35 101.2 35.55 104.65 34.2 110.45 38 116.6 39.2 118.9 42.05 118.9
L 112.05 118.9 112.05 114.75 42.75 114.75
Q 42.1 114.85 41.45 114.45 40.1 113.7 40.1 111.45
L 40.1 104.75
Q 40.1 102.5 41.45 101.75
L 42.75 101.45 112.05 101.45 112.05 97.3 42.05 97.3
Q 40.05 97.3 38.8 98.45
L 38.65 98.65 38.6 98.65 Z"/>
</g>

<g id="Layer0_0_MEMBER_3_MEMBER_0_FILL">
<path fill="#E7E5E5" stroke="none" d="
M 123.5 94.75
Q 119.85 90.95 121.15 85.55
L 123.15 80.9 55.4 79.95 55.75 94.75 123.5 94.75 Z"/>
</g>

<g id="Layer0_0_MEMBER_4_MEMBER_0_FILL">
<path fill="#CECECD" stroke="none" d="
M 122.1 82.6
Q 122.45 81.6 123.25 80.9
L 56.35 79.25 55.4 89.15
Q 58.8 86.5 68.35 84.75 87.2 81.25 121.85 83.4 121.9 83.05 122.1 82.6 Z"/>
</g>

<g id="Layer0_0_MEMBER_5_MEMBER_0_FILL">
<path fill="#EA5645" stroke="none" d="
M 124.55 97.45
L 124.55 93.5 58.8 93.5
Q 58.2 93.6 57.55 93.2 56.3 92.5 56.3 90.35
L 56.3 84.05
Q 56.3 81.9 57.55 81.2
L 58.8 80.9 124.55 80.9 124.55 76.95 58.15 76.95
Q 56.2 76.95 55.1 78.05
L 54.95 78.25 54.85 78.35
Q 52.8 80.65 52.05 83.95 50.75 89.45 54.35 95.25 55.45 97.45 58.15 97.45
L 124.55 97.45 Z"/>
</g>

<g id="Layer0_0_MEMBER_6_MEMBER_0_FILL">
<path fill="#E7E5E5" stroke="none" d="
M 113.75 74.15
Q 109.9 70.15 111.25 64.45
L 113.4 59.55 41.9 58.5 42.25 74.15 113.75 74.15 Z"/>
</g>

<g id="Layer0_0_MEMBER_7_MEMBER_0_FILL">
<path fill="#CECECD" stroke="none" d="
M 112.25 61.3
Q 112.65 60.3 113.5 59.5
L 42.9 57.75 41.9 68.2
Q 45.45 65.4 55.55 63.55 75.45 59.9 112 62.15 112.05 61.8 112.25 61.3 Z"/>
</g>

<g id="Layer0_0_MEMBER_8_MEMBER_0_FILL">
<path fill="#FFC23A" stroke="none" d="
M 114.85 76.95
L 114.85 72.8 45.5 72.8
Q 44.85 72.9 44.2 72.5 42.85 71.75 42.85 69.5
L 42.85 62.8
Q 42.85 60.55 44.2 59.8
L 45.5 59.5 114.85 59.5 114.85 55.35 44.8 55.35
Q 42.75 55.35 41.6 56.5
L 41.55 56.5 41.4 56.7 41.3 56.8
Q 39.1 59.25 38.3 62.7 36.95 68.5 40.75 74.65 41.95 76.95 44.8 76.95
L 114.85 76.95 Z"/>
</g>

<g id="Layer0_0_MEMBER_9_MEMBER_0_FILL">
<path fill="#D13431" stroke="none" d="
M 103.25 80.9
L 103.25 76.95 73.6 76.95 73.6 80.9 103.25 80.9 Z"/>
</g>

<g id="Layer0_0_MEMBER_10_MEMBER_0_FILL">
<path fill="#D13431" stroke="none" d="
M 103 97.45
L 103 93.5 73.35 93.5 73.35 97.45 103 97.45 Z"/>
</g>

<g id="Layer0_0_MEMBER_11_MEMBER_0_FILL">
<path fill="#F9A431" stroke="none" d="
M 57.55 59.5
L 57.55 55.35 44.8 55.35
Q 42.75 55.35 41.6 56.5
L 41.55 56.5 41.4 56.7 41.3 56.8
Q 39.1 59.25 38.3 62.7 36.95 68.5 40.75 74.65 41.95 76.95 44.8 76.95
L 57.55 76.95 57.55 72.8 45.5 72.8
Q 44.85 72.9 44.2 72.5 42.85 71.75 42.85 69.5
L 42.85 62.8
Q 42.85 60.55 44.2 59.8
L 45.5 59.5 57.55 59.5 Z"/>
</g>

<g id="Layer0_0_MEMBER_12_MEMBER_0_FILL">
<path fill="#22B1B6" stroke="none" d="
M 103.8 91.5
Q 102.4 88.35 100.45 87.55 98.85 87.2 96.55 87.2
L 94.6 87.25 96.45 89.3
Q 98.25 92.05 98.1 95.65
L 100.9 91.7 104.8 94.55
Q 104.5 93.1 103.8 91.5 Z"/>
</g>

<g id="Layer0_0_MEMBER_13_MEMBER_0_FILL">
<path fill="#EA5645" stroke="none" d="
M 69.65 70.45
Q 68.25 67.3 66.3 66.5 64.7 66.15 62.4 66.15
L 60.4 66.2 62.25 68.25
Q 64.05 71 63.95 74.6
L 66.75 70.65 70.65 73.5
Q 70.35 72.05 69.65 70.45 Z"/>
</g>

<g id="Layer0_0_MEMBER_14_MEMBER_0_FILL">
<path fill="#EC2C24" stroke="none" d="
M 93.85 38
Q 92.1 32.35 86.95 31.15 82.25 30.05 78.25 33.05 76.8 31.75 74.4 31 69.7 29.55 65.25 32.25 62.6 33.85 61.55 37.85 60.55 41.85 61.75 45.95 64.8 56.45 77.05 56.5 87.05 56.55 91.75 50.3 95.9 44.75 93.85 38 Z"/>
</g>

<g id="Layer0_0_MEMBER_15_MEMBER_0_FILL">
<path fill="#5E4123" stroke="none" d="
M 69.8 23.9
Q 69.5 24.2 69.35 24.75 69.3 25.05 69.3 25.25 74.55 27.25 77 31.6 78.25 33.75 78.4 35.5 78.2 29.3 74 26 72.65 24.95 71.1 24.3
L 69.8 23.9 Z"/>
</g>

<g id="Layer0_0_MEMBER_16_MEMBER_0_FILL">
<path fill="#609641" stroke="none" d="
M 85.05 21.7
Q 85.65 18.8 84.85 16.6 77.3 20.8 76.3 26.4 75.8 29.2 76.8 31.15 83.85 27.55 85.05 21.7 Z"/>
</g>

<g id="Layer0_0_MEMBER_17_MEMBER_0_FILL">
<path fill="#3F6932" stroke="none" d="
M 79.35 20
Q 74.35 24.7 76.8 31.15 77.6 28.3 79.05 25.05 81.85 18.55 84.85 16.6 81.85 17.65 79.35 20 Z"/>
</g>

<g id="Layer0_0_MEMBER_18_MEMBER_0_FILL">
<path fill="#D22027" stroke="none" d="
M 94.35 39.85
L 93 35.9
Q 89.35 46.25 76.35 49.5 72.3 50.55 67.8 50.7
L 64.1 50.7
Q 67.05 54.7 71.9 56.15 74.3 56.9 76.15 56.8 84 57.7 88.85 54.25 91.25 52.5 92.1 50.6 95.05 44.95 94.35 39.85 Z"/>
</g>

<g id="Layer0_0_MEMBER_19_MEMBER_0_FILL">
<path fill="#179998" stroke="none" d="
M 38.6 98.85
L 38.55 98.95
Q 36.35 101.4 35.55 104.85 34.2 110.65 38 116.75 39.2 119.1 42.05 119.1
L 54.85 119.1 54.85 114.95 42.75 114.95
Q 42.1 115 41.45 114.65 40.1 113.85 40.1 111.6
L 40.1 104.95
Q 40.1 102.65 41.45 101.9
L 42.75 101.6 54.85 101.6 54.85 97.45 42.05 97.45
Q 40.15 97.45 38.8 98.6
L 38.8 98.65 38.6 98.85 Z"/>
</g>
</defs>

<g transform="matrix( 8, 0, 0, 8, -126.95,-30.8) ">
<use xlink:href="#Layer0_0_MEMBER_0_MEMBER_0_FILL"/>
</g>

<g transform="matrix( 8, 0, 0, 8, -126.95,-30.8) ">
<use xlink:href="#Layer0_0_MEMBER_1_MEMBER_0_FILL"/>
</g>

<g transform="matrix( 8, 0, 0, 8, -126.95,-30.8) ">
<use xlink:href="#Layer0_0_MEMBER_2_MEMBER_0_FILL"/>
</g>

<g transform="matrix( 8, 0, 0, 8, -126.95,-30.8) ">
<use xlink:href="#Layer0_0_MEMBER_3_MEMBER_0_FILL"/>
</g>

<g transform="matrix( 8, 0, 0, 8, -126.95,-30.8) ">
<use xlink:href="#Layer0_0_MEMBER_4_MEMBER_0_FILL"/>
</g>

<g transform="matrix( 8, 0, 0, 8, -126.95,-30.8) ">
<use xlink:href="#Layer0_0_MEMBER_5_MEMBER_0_FILL"/>
</g>

<g transform="matrix( 8, 0, 0, 8, -126.95,-30.8) ">
<use xlink:href="#Layer0_0_MEMBER_6_MEMBER_0_FILL"/>
</g>

<g transform="matrix( 8, 0, 0, 8, -126.95,-30.8) ">
<use xlink:href="#Layer0_0_MEMBER_7_MEMBER_0_FILL"/>
</g>

<g transform="matrix( 8, 0, 0, 8, -126.95,-30.8) ">
<use xlink:href="#Layer0_0_MEMBER_8_MEMBER_0_FILL"/>
</g>

<g transform="matrix( 8, 0, 0, 8, -126.95,-30.8) ">
<use xlink:href="#Layer0_0_MEMBER_9_MEMBER_0_FILL"/>
</g>

<g transform="matrix( 8, 0, 0, 8, -126.95,-30.8) ">
<use xlink:href="#Layer0_0_MEMBER_10_MEMBER_0_FILL"/>
</g>

<g transform="matrix( 8, 0, 0, 8, -126.95,-30.8) ">
<use xlink:href="#Layer0_0_MEMBER_11_MEMBER_0_FILL"/>
</g>

<g transform="matrix( 8, 0, 0, 8, -126.95,-30.8) ">
<use xlink:href="#Layer0_0_MEMBER_12_MEMBER_0_FILL"/>
</g>

<g transform="matrix( 8, 0, 0, 8, -126.95,-30.8) ">
<use xlink:href="#Layer0_0_MEMBER_13_MEMBER_0_FILL"/>
</g>

<g transform="matrix( 8, 0, 0, 8, -126.95,-30.8) ">
<use xlink:href="#Layer0_0_MEMBER_14_MEMBER_0_FILL"/>
</g>

<g transform="matrix( 8, 0, 0, 8, -126.95,-30.8) ">
<use xlink:href="#Layer0_0_MEMBER_15_MEMBER_0_FILL"/>
</g>

<g transform="matrix( 8, 0, 0, 8, -126.95,-30.8) ">
<use xlink:href="#Layer0_0_MEMBER_16_MEMBER_0_FILL"/>
</g>

<g transform="matrix( 8, 0, 0, 8, -126.95,-30.8) ">
<use xlink:href="#Layer0_0_MEMBER_17_MEMBER_0_FILL"/>
</g>

<g transform="matrix( 8, 0, 0, 8, -126.95,-30.8) ">
<use xlink:href="#Layer0_0_MEMBER_18_MEMBER_0_FILL"/>
</g>

<g transform="matrix( 8, 0, 0, 8, -126.95,-30.8) ">
<use xlink:href="#Layer0_0_MEMBER_19_MEMBER_0_FILL"/>
</g>
</svg>
