<svg t="1673514970041" class="icon" viewBox="0 0 1024 1024" version="1.1" xmlns="http://www.w3.org/2000/svg" p-id="12491" width="200" height="200"><path d="M922 635.8c12 6.9 12.1 18.2 0.1 25.1L526.8 890.7c-11.9 6.9-31.3 6.9-43.3 0l-304-175.5c-12-6.9-12.1-18.2-0.1-25.1l395.3-229.7c11.9-6.9 31.3-6.9 43.3 0l304 175.4z" fill="#337DFF" p-id="12492"></path><path d="M913.6 515.5c1.7-0.9 3.6 0.7 3 2.6-4 12.3-13.5 45.2-13.5 79.2 0 33.4 8.9 47.6 12.9 52.3 0.9 1 0.6 2.6-0.5 3.3l-409 238.4c-0.9 0.5-2.4 0.6-3.1-0.1l-99.7-106.6c-1-1-0.7-2.7 0.6-3.4l509.3-265.7z" fill="#FFDEDE" p-id="12493"></path><path d="M195 574.7l-0.4 138.4c-6-3.5-9.1-8.1-9-12.6L186 562c0 4.6 3 9.2 9 12.7" fill="#857373" p-id="12494"></path><path d="M205.3 721.2l-20.1-7.1V555.8l20.1 4.9z" fill="#337DFF" p-id="12495"></path><path d="M199.7 707.1l0.4-132c0-0.2 0.2-0.3 0.4-0.2L505 753.6c0.2 0.1 0.2 0.3 0 0.4-2.5 1.8-18 15-18 64.2 0 46.6 13.5 68 17.1 72.8 0.2 0.2-0.1 0.5-0.4 0.4L204.4 715.8s-3.3-2.3-4-4.2c-0.7-1.8-0.7-4.5-0.7-4.5z" fill="#FFFFFF" p-id="12496"></path><path d="M918.4 513l-413 240.8-305.3-179.1c-12-6.9-17.2-18.2-5.2-25.1l380-224.6c11.9-6.9 31.3-6.9 43.3 0l300.2 188z" fill="#DCBFBF" p-id="12497"></path><path d="M922 481.4c12 6.9 12.1 18.2 0.1 25.1L526.8 736.2c-11.9 6.9-31.3 6.9-43.3 0l-304-175.5c-12-6.9-12.1-18.2-0.1-25.1l395.3-229.7c11.9-6.9 31.3-6.9 43.3 0l304 175.5z" fill="#337DFF" p-id="12498"></path><path d="M930.9 650.3c-0.1 0.5-0.2 1-0.4 1.5 0 0.1 0 0.1-0.1 0.2-0.2 0.5-0.4 1-0.6 1.4 0 0.1-0.1 0.2-0.1 0.2-0.3 0.5-0.5 1-0.9 1.4 0 0.1-0.1 0.1-0.1 0.2-0.3 0.4-0.6 0.8-1 1.3-0.1 0.1-0.1 0.2-0.2 0.2-0.4 0.5-0.9 0.9-1.4 1.3l-0.2 0.2c-0.5 0.4-1 0.8-1.6 1.2-0.1 0.1-0.2 0.1-0.2 0.2-0.6 0.4-1.3 0.8-1.9 1.2L526.8 890.7c-0.7 0.4-1.4 0.7-2.1 1.1l-0.6 0.3c-0.6 0.3-1.3 0.6-2 0.8-0.1 0-0.2 0.1-0.3 0.1-0.7 0.3-1.5 0.5-2.2 0.8-0.5 0.2-1 0.3-1.6 0.5l-1.2 0.3c-0.6 0.1-1.1 0.2-1.7 0.4l-1.2 0.3c-0.2 0-0.3 0.1-0.5 0.1l-2.1 0.3c-0.2 0-0.4 0.1-0.6 0.1-0.4 0-0.8 0.1-1.2 0.1-0.7 0.1-1.4 0.1-2.1 0.1H503c-0.5 0-1 0-1.6-0.1-0.5 0-0.9-0.1-1.4-0.1-0.5 0-1-0.1-1.5-0.2s-0.9-0.1-1.4-0.2c-0.5-0.1-1.1-0.2-1.6-0.3-0.4-0.1-0.9-0.2-1.3-0.3-0.6-0.1-1.3-0.3-1.9-0.5l-1.2-0.3c-0.2-0.1-0.4-0.1-0.6-0.2-0.6-0.2-1.3-0.4-1.9-0.6-0.2-0.1-0.4-0.1-0.5-0.2-0.6-0.2-1.1-0.5-1.6-0.7-0.3-0.1-0.5-0.2-0.8-0.3-0.8-0.4-1.5-0.8-2.2-1.2l-283-163.4c-6.3-3.6-10.1-10.3-10.1-17.5V599.2c0-5 5.4-8.2 9.8-5.7L483.4 757c0.7 0.4 1.5 0.8 2.2 1.2 0.3 0.1 0.5 0.2 0.8 0.3 0.5 0.2 0.9 0.4 1.4 0.6 0.1 0 0.2 0.1 0.2 0.1 0.2 0.1 0.4 0.1 0.5 0.2 0.6 0.2 1.2 0.4 1.9 0.6 0.2 0.1 0.4 0.1 0.6 0.2 0.1 0 0.3 0.1 0.4 0.1 0.3 0.1 0.5 0.1 0.8 0.2 0.6 0.2 1.3 0.3 1.9 0.5 0.2 0 0.3 0.1 0.5 0.1 0.3 0.1 0.5 0.1 0.8 0.1 0.5 0.1 1.1 0.2 1.6 0.3 0.2 0 0.4 0.1 0.7 0.1 0.2 0 0.5 0 0.7 0.1 0.5 0.1 1 0.1 1.5 0.2 0.2 0 0.5 0.1 0.7 0.1h0.7c0.5 0 1 0.1 1.5 0.1H507.2c0.7 0 1.4-0.1 2.1-0.1 0.3 0 0.6 0 0.8-0.1H510.7c0.7-0.1 1.9-0.3 2.7-0.4 0.1 0 0.2 0 0.4-0.1h0.2c0.3-0.1 0.7-0.1 1-0.2 0.6-0.1 1.1-0.2 1.7-0.4l1.2-0.3c0.5-0.1 1.1-0.3 1.6-0.4 0.1 0 0.2-0.1 0.3-0.1 0.6-0.2 1.3-0.4 1.9-0.7 0.1 0 0.2-0.1 0.3-0.1 0.7-0.3 1.3-0.5 2-0.8l0.6-0.3c0.7-0.3 1.4-0.7 2.1-1.1L922 527.3c0.1-0.1 0.3-0.1 0.4-0.2 0.6-0.3 1.1-0.7 1.6-1 0.1-0.1 0.2-0.1 0.2-0.2 0.6-0.4 1.1-0.8 1.6-1.2l0.2-0.2c0.1-0.1 0.2-0.2 0.3-0.2 0.4-0.4 0.8-0.7 1.1-1.1 0.1-0.1 0.1-0.2 0.2-0.2 0.2-0.2 0.4-0.5 0.6-0.7 0.1-0.2 0.3-0.4 0.4-0.6 0-0.1 0.1-0.1 0.1-0.2 0.2-0.4 0.5-0.7 0.7-1.1 0.1-0.1 0.1-0.2 0.2-0.4 0-0.1 0.1-0.2 0.1-0.2 0.2-0.4 0.4-0.8 0.5-1.2 0-0.1 0.1-0.2 0.1-0.3 0-0.1 0-0.1 0.1-0.2l0.3-1.2v-0.2-0.2c0.1-0.4 0.1-0.9 0.1-1.3v-0.3l0.2-20.9c0 0.5-0.1 1-0.1 1.6v0.2c-0.1 0.5-0.2 1-0.4 1.5 0 0.1 0 0.1-0.1 0.2-0.2 0.5-0.4 1-0.6 1.4 0 0.1-0.1 0.2-0.1 0.2-0.3 0.5-0.5 1-0.9 1.4 0 0.1-0.1 0.1-0.1 0.2-0.3 0.4-0.6 0.8-1 1.3-0.1 0.1-0.1 0.2-0.2 0.2-0.4 0.5-0.9 0.9-1.4 1.3l-0.2 0.2c-0.5 0.4-1 0.8-1.6 1.2-0.1 0.1-0.2 0.1-0.2 0.2-0.6 0.4-1.2 0.8-1.9 1.2L526.8 736.2c-0.7 0.4-1.4 0.7-2.1 1.1l-0.6 0.3c-0.6 0.3-1.3 0.6-2 0.8-0.1 0-0.2 0.1-0.3 0.1-0.7 0.3-1.5 0.5-2.2 0.8-0.5 0.2-1 0.3-1.6 0.5l-1.2 0.3c-0.6 0.1-1.1 0.2-1.7 0.4l-1.2 0.3c-0.1 0-0.2 0-0.4 0.1-0.7 0.1-1.9 0.3-2.6 0.4h-0.3c-0.4 0-0.8 0.1-1.2 0.1-0.7 0.1-1.4 0.1-2.1 0.1h-4.4c-0.5 0-1 0-1.6-0.1-0.5 0-0.9-0.1-1.4-0.1-0.5 0-1-0.1-1.5-0.2s-0.9-0.1-1.4-0.2c-0.5-0.1-1.1-0.2-1.6-0.3-0.4-0.1-0.9-0.2-1.3-0.3-0.6-0.1-1.3-0.3-1.9-0.5l-1.2-0.3c-0.2-0.1-0.4-0.1-0.6-0.2-0.6-0.2-1.3-0.4-1.9-0.6-0.2-0.1-0.4-0.1-0.5-0.2-0.6-0.2-1.1-0.5-1.6-0.7-0.3-0.1-0.5-0.2-0.8-0.3-0.8-0.4-1.5-0.8-2.2-1.2l-304-175.5c-6-3.5-9.1-8.1-9-12.6l-0.1 17.8h-0.1v158.2l0.1 0.1c0.3 4.3 3.3 8.6 9 11.9l304 175.5c0.7 0.4 1.5 0.8 2.2 1.2 0.3 0.1 0.5 0.2 0.8 0.3 0.5 0.2 0.9 0.4 1.4 0.6 0.1 0 0.2 0.1 0.2 0.1 0.2 0.1 0.4 0.1 0.5 0.2 0.6 0.2 1.2 0.4 1.9 0.6 0.2 0.1 0.4 0.1 0.6 0.2 0.1 0 0.3 0.1 0.4 0.1 0.3 0.1 0.5 0.1 0.8 0.2 0.6 0.2 1.3 0.3 1.9 0.5 0.2 0 0.3 0.1 0.5 0.1 0.3 0.1 0.5 0.1 0.8 0.1 0.5 0.1 1.1 0.2 1.6 0.3 0.2 0 0.4 0.1 0.7 0.1 0.2 0 0.5 0 0.7 0.1 0.5 0.1 1 0.1 1.5 0.2 0.2 0 0.5 0.1 0.7 0.1h0.7c0.5 0 1 0.1 1.6 0.1H507.2c0.7 0 1.4-0.1 2.1-0.1 0.3 0 0.6 0 0.8-0.1h0.4c0.2 0 0.4 0 0.6-0.1l2.1-0.3c0.2 0 0.4-0.1 0.5-0.1h0.2c0.3-0.1 0.7-0.1 1-0.2 0.6-0.1 1.1-0.2 1.7-0.4l1.2-0.3c0.5-0.1 1.1-0.3 1.6-0.5 0.1 0 0.2-0.1 0.3-0.1 0.6-0.2 1.3-0.4 1.9-0.7 0.1 0 0.2-0.1 0.3-0.1 0.7-0.3 1.3-0.5 2-0.8l0.6-0.3c0.7-0.3 1.4-0.7 2.1-1.1l395.3-229.7c0.1-0.1 0.3-0.1 0.4-0.2 0.6-0.3 1.1-0.7 1.6-1 0.1-0.1 0.2-0.1 0.2-0.2 0.6-0.4 1.1-0.8 1.6-1.2l0.2-0.2c0.1-0.1 0.2-0.2 0.3-0.2 0.4-0.4 0.8-0.7 1.1-1.1 0.1-0.1 0.1-0.2 0.2-0.2 0.2-0.2 0.4-0.5 0.6-0.7 0.1-0.2 0.3-0.4 0.4-0.6 0-0.1 0.1-0.1 0.1-0.2 0.2-0.4 0.5-0.7 0.7-1.1 0.1-0.1 0.1-0.2 0.2-0.4 0-0.1 0.1-0.2 0.1-0.2 0.2-0.4 0.4-0.8 0.5-1.2 0-0.1 0.1-0.2 0.1-0.3 0-0.1 0-0.1 0.1-0.2l0.3-1.2v-0.2-0.2c0.1-0.4 0.1-0.9 0.1-1.3v-0.3l0.1-20.8c0 0.5-0.1 1-0.1 1.6 0.2-0.2 0.2-0.1 0.2 0z" fill="#99BEFF" p-id="12499"></path><path d="M846.7 469.9c12 6.9 12.1 18.2 0.1 25.1L451.5 724.7c-11.9 6.9-31.3 6.9-43.3 0l-304-175.5c-12-6.9-12.1-18.2-0.1-25.1l395.3-229.7c11.9-6.9 31.3-6.9 43.3 0l304 175.5z" fill="#337DFF" p-id="12500"></path><path d="M838.3 349.5c1.7-0.9 3.6 0.7 3 2.6-4 12.3-13.5 45.2-13.5 79.2 0 33.4 8.9 47.6 12.9 52.3 0.9 1 0.6 2.6-0.5 3.3l-409 238.4c-0.9 0.5-2.4 0.6-3.1-0.1l-99.7-106.6c-1-1-0.7-2.7 0.6-3.4l509.3-265.7z" fill="#FFDEDE" p-id="12501"></path><path d="M119.7 408.7l-0.4 138.4c-6-3.5-9.1-8.1-9-12.6l0.4-138.4c-0.1 4.5 3 9.1 9 12.6" fill="#857373" p-id="12502"></path><path d="M130 555.2l-20.1-7.1V389.9l20.1 4.8z" fill="#337DFF" p-id="12503"></path><path d="M124.4 541.1l0.4-132c0-0.2 0.2-0.3 0.4-0.2l304.5 178.7c0.2 0.1 0.2 0.3 0 0.4-2.5 1.8-18 15-18 64.2 0 46.6 13.5 68 17.1 72.8 0.2 0.2-0.1 0.5-0.4 0.4L129.1 549.8s-3.3-2.3-4-4.2c-0.8-1.8-0.7-4.5-0.7-4.5z" fill="#FFFFFF" p-id="12504"></path><path d="M843.1 347l-413 240.8-305.3-179.1c-12-6.9-17.2-18.2-5.2-25.1l380-224.6c11.9-6.9 31.3-6.9 43.3 0l300.2 188z" fill="#DCBFBF" p-id="12505"></path><path d="M846.7 315.4c12 6.9 12.1 18.2 0.1 25.1L451.5 570.3c-11.9 6.9-31.3 6.9-43.3 0l-304-175.5c-12-6.9-12.1-18.2-0.1-25.1L499.4 140c11.9-6.9 31.3-6.9 43.3 0l304 175.4z" fill="#337DFF" p-id="12506"></path><path d="M855.5 484.3c-0.1 0.5-0.2 1-0.4 1.5 0 0.1 0 0.1-0.1 0.2-0.2 0.5-0.4 1-0.6 1.4 0 0.1-0.1 0.2-0.1 0.2-0.3 0.5-0.5 1-0.9 1.4 0 0.1-0.1 0.1-0.1 0.2-0.3 0.4-0.6 0.8-1 1.3-0.1 0.1-0.1 0.2-0.2 0.2-0.4 0.5-0.9 0.9-1.4 1.3l-0.2 0.2c-0.5 0.4-1 0.8-1.6 1.2-0.1 0.1-0.2 0.1-0.2 0.2-0.6 0.4-1.3 0.8-1.9 1.2L451.5 724.7c-0.7 0.4-1.4 0.7-2.1 1.1l-0.6 0.3c-0.6 0.3-1.3 0.6-2 0.8-0.1 0-0.2 0.1-0.3 0.1-0.7 0.3-1.5 0.5-2.2 0.8-0.5 0.2-1 0.3-1.6 0.5l-1.2 0.3c-0.6 0.1-1.1 0.2-1.7 0.4l-1.2 0.3c-0.2 0-0.3 0.1-0.5 0.1l-2.1 0.3c-0.2 0-0.4 0.1-0.6 0.1-0.4 0-0.8 0.1-1.2 0.1-0.7 0.1-1.4 0.1-2.1 0.1h-4.4c-0.5 0-1 0-1.6-0.1-0.5 0-0.9-0.1-1.4-0.1-0.5 0-1-0.1-1.5-0.2s-0.9-0.1-1.4-0.2c-0.5-0.1-1.1-0.2-1.6-0.3-0.4-0.1-0.9-0.2-1.3-0.3-0.6-0.1-1.3-0.3-1.9-0.5l-1.2-0.3c-0.2-0.1-0.4-0.1-0.6-0.2-0.6-0.2-1.3-0.4-1.9-0.6-0.2-0.1-0.4-0.1-0.5-0.2-0.6-0.2-1.1-0.5-1.6-0.7-0.3-0.1-0.5-0.2-0.8-0.3-0.8-0.4-1.5-0.8-2.2-1.2l-283-163.4c-6.3-3.6-10.1-10.3-10.1-17.5V433.2c0-5 5.4-8.2 9.8-5.7L408.1 591c0.7 0.4 1.5 0.8 2.2 1.2 0.3 0.1 0.5 0.2 0.8 0.3 0.5 0.2 0.9 0.4 1.4 0.6 0.1 0 0.2 0.1 0.2 0.1 0.2 0.1 0.4 0.1 0.5 0.2 0.6 0.2 1.2 0.4 1.9 0.6 0.2 0.1 0.4 0.1 0.6 0.2 0.1 0 0.3 0.1 0.4 0.1 0.3 0.1 0.5 0.1 0.8 0.2 0.6 0.2 1.3 0.3 1.9 0.5 0.2 0 0.3 0.1 0.5 0.1 0.3 0.1 0.5 0.1 0.8 0.1 0.5 0.1 1.1 0.2 1.6 0.3 0.2 0 0.4 0.1 0.7 0.1 0.2 0 0.5 0 0.7 0.1 0.5 0.1 1 0.1 1.5 0.2 0.2 0 0.5 0.1 0.7 0.1h0.7c0.5 0 1 0.1 1.5 0.1H431.9c0.7 0 1.4-0.1 2.1-0.1 0.3 0 0.6 0 0.8-0.1H435.4c0.7-0.1 1.9-0.3 2.7-0.4 0.1 0 0.2 0 0.4-0.1h0.2c0.3-0.1 0.7-0.1 1-0.2 0.6-0.1 1.1-0.2 1.7-0.4l1.2-0.3c0.5-0.1 1.1-0.3 1.6-0.4 0.1 0 0.2-0.1 0.3-0.1 0.6-0.2 1.3-0.4 1.9-0.7 0.1 0 0.2-0.1 0.3-0.1 0.7-0.3 1.3-0.5 2-0.8l0.6-0.3c0.7-0.3 1.4-0.7 2.1-1.1l395.3-229.7c0.1-0.1 0.3-0.1 0.4-0.2 0.6-0.3 1.1-0.7 1.6-1 0.1-0.1 0.2-0.1 0.2-0.2 0.6-0.4 1.1-0.8 1.6-1.2l0.2-0.2c0.1-0.1 0.2-0.2 0.3-0.2 0.4-0.4 0.8-0.7 1.1-1.1 0.1-0.1 0.1-0.2 0.2-0.2 0.2-0.2 0.4-0.5 0.6-0.7 0.1-0.2 0.3-0.4 0.4-0.6 0-0.1 0.1-0.1 0.1-0.2 0.2-0.4 0.5-0.7 0.7-1.1 0.1-0.1 0.1-0.2 0.2-0.4 0-0.1 0.1-0.2 0.1-0.2 0.2-0.4 0.4-0.8 0.5-1.2 0-0.1 0.1-0.2 0.1-0.3 0-0.1 0-0.1 0.1-0.2l0.3-1.2v-0.2-0.2c0.1-0.4 0.1-0.9 0.1-1.3v-0.3l0.1-20.8c0 0.5-0.1 1-0.1 1.6v0.2c-0.1 0.5-0.2 1-0.4 1.5 0 0.1 0 0.1-0.1 0.2-0.2 0.5-0.4 1-0.6 1.4 0 0.1-0.1 0.2-0.1 0.2-0.3 0.5-0.5 1-0.9 1.4 0 0.1-0.1 0.1-0.1 0.2-0.3 0.4-0.6 0.8-1 1.3-0.1 0.1-0.1 0.2-0.2 0.2-0.4 0.5-0.9 0.9-1.4 1.3l-0.2 0.2c-0.5 0.4-1 0.8-1.6 1.2-0.1 0.1-0.2 0.1-0.2 0.2-0.6 0.4-1.2 0.8-1.9 1.2L451.5 570.3c-0.7 0.4-1.4 0.7-2.1 1.1l-0.6 0.3c-0.6 0.3-1.3 0.6-2 0.8-0.1 0-0.2 0.1-0.3 0.1-0.7 0.3-1.5 0.5-2.2 0.8-0.5 0.2-1 0.3-1.6 0.5l-1.2 0.3c-0.6 0.1-1.1 0.2-1.7 0.4l-1.2 0.3c-0.1 0-0.2 0-0.4 0.1-0.7 0.1-1.9 0.3-2.6 0.4h-0.3c-0.4 0-0.8 0.1-1.2 0.1-0.7 0.1-1.4 0.1-2.1 0.1h-4.4c-0.5 0-1 0-1.6-0.1-0.5 0-0.9-0.1-1.4-0.1-0.5 0-1-0.1-1.5-0.2s-0.9-0.1-1.4-0.2c-0.5-0.1-1.1-0.2-1.6-0.3-0.4-0.1-0.9-0.2-1.3-0.3-0.6-0.1-1.3-0.3-1.9-0.5l-1.2-0.3c-0.2-0.1-0.4-0.1-0.6-0.2-0.6-0.2-1.3-0.4-1.9-0.6-0.2-0.1-0.4-0.1-0.5-0.2-0.6-0.2-1.1-0.5-1.6-0.7-0.3-0.1-0.5-0.2-0.8-0.3-0.8-0.4-1.5-0.8-2.2-1.2l-304-175.5c-6-3.5-9.1-8.1-9-12.6l-0.1 17.8h-0.1v158.2l0.1 0.1c0.3 4.3 3.3 8.6 9 11.9l304 175.5c0.7 0.4 1.5 0.8 2.2 1.2 0.3 0.1 0.5 0.2 0.8 0.3 0.5 0.2 0.9 0.4 1.4 0.6 0.1 0 0.2 0.1 0.2 0.1 0.2 0.1 0.4 0.1 0.5 0.2 0.6 0.2 1.2 0.4 1.9 0.6 0.2 0.1 0.4 0.1 0.6 0.2 0.1 0 0.3 0.1 0.4 0.1 0.3 0.1 0.5 0.1 0.8 0.2 0.6 0.2 1.3 0.3 1.9 0.5 0.2 0 0.3 0.1 0.5 0.1 0.3 0.1 0.5 0.1 0.8 0.1 0.5 0.1 1.1 0.2 1.6 0.3 0.2 0 0.4 0.1 0.7 0.1 0.2 0 0.5 0 0.7 0.1 0.5 0.1 1 0.1 1.5 0.2 0.2 0 0.5 0.1 0.7 0.1h0.7c0.5 0 1 0.1 1.6 0.1H431.9c0.7 0 1.4-0.1 2.1-0.1 0.3 0 0.6 0 0.8-0.1h0.4c0.2 0 0.4 0 0.6-0.1l2.1-0.3c0.2 0 0.4-0.1 0.5-0.1h0.2c0.3-0.1 0.7-0.1 1-0.2 0.6-0.1 1.1-0.2 1.7-0.4l1.2-0.3c0.5-0.1 1.1-0.3 1.6-0.5 0.1 0 0.2-0.1 0.3-0.1 0.6-0.2 1.3-0.4 1.9-0.7 0.1 0 0.2-0.1 0.3-0.1 0.7-0.3 1.3-0.5 2-0.8l0.6-0.3c0.7-0.3 1.4-0.7 2.1-1.1L846.6 516c0.1-0.1 0.3-0.1 0.4-0.2 0.6-0.3 1.1-0.7 1.6-1 0.1-0.1 0.2-0.1 0.2-0.2 0.6-0.4 1.1-0.8 1.6-1.2l0.2-0.2c0.1-0.1 0.2-0.2 0.3-0.2 0.4-0.4 0.8-0.7 1.1-1.1 0.1-0.1 0.1-0.2 0.2-0.2 0.2-0.2 0.4-0.5 0.6-0.7 0.1-0.2 0.3-0.4 0.4-0.6 0-0.1 0.1-0.1 0.1-0.2 0.2-0.4 0.5-0.7 0.7-1.1 0.1-0.1 0.1-0.2 0.2-0.4 0-0.1 0.1-0.2 0.1-0.2 0.2-0.4 0.4-0.8 0.5-1.2 0-0.1 0.1-0.2 0.1-0.3 0-0.1 0-0.1 0.1-0.2l0.3-1.2v-0.2-0.2c0.1-0.4 0.1-0.9 0.1-1.3v-0.3l0.1-20.8c0 0.5-0.1 1-0.1 1.6l0.1-0.1z" fill="#99BEFF" p-id="12507"></path><path d="M821.6 301L641.8 405.4c-3.3 1.9-7.6 0.3-8.7-3.3L610.9 334l-103-8c-5.9-0.5-7.7-8.2-2.6-11.2l169.6-98.5L821.6 301z" fill="#FFE872" p-id="12508"></path></svg>