<svg width="150" height="150" id="icon-dingbu" viewBox="0 0 1024 1024"><path d="M116.096 596.08064l90.86976 0 0 231.9872 42.48576 0 0-231.9872 90.86976 0 0-42.48064L116.096 553.6 116.096 596.08064zM574.63296 553.6 462.08512 553.6c-13.58848 0-27.18208 5.18656-37.54496 15.54944-10.37312 10.368-15.55456 23.9616-15.55456 37.5552l0 168.24832c0 13.5936 5.18144 27.1872 15.55456 37.5552 10.368 10.368 23.9616 15.55456 37.54496 15.55456l112.54784 0c13.58848 0 27.1872-5.18656 37.5552-15.55456s15.54944-23.9616 15.54944-37.5552l0-168.2432c0-13.59872-5.18144-27.1872-15.54944-37.56032C601.82016 558.78656 588.22656 553.6 574.63296 553.6L574.63296 553.6zM585.26208 774.95296c0 2.01216-0.54784 4.94592-3.10784 7.51616-2.57024 2.57024-5.50912 3.10784-7.51616 3.10784L462.08512 785.57696c-2.00704 0-4.93568-0.5376-7.50592-3.10784s-3.11296-5.504-3.11296-7.51616l0-168.2432c0-2.01216 0.54272-4.94592 3.11296-7.51616s5.49888-3.11296 7.50592-3.11296l112.54784 0c2.00704 0 4.94592 0.54272 7.50592 3.11296 2.57024 2.57024 3.11808 5.504 3.11808 7.51616L585.25696 774.95296 585.26208 774.95296zM892.34944 569.14944c-10.368-10.35776-23.96672-15.54944-37.5552-15.54944l-145.65376 0 0 274.46272 42.48064 0L751.62112 707.6864l103.17312 0c13.5936 0 27.1872-5.18656 37.5552-15.55456s15.55456-23.9616 15.55456-37.55008l0-47.87712C907.904 593.11104 902.72256 579.52256 892.34944 569.14944L892.34944 569.14944zM865.41824 654.58176c0 2.00704-0.5376 4.9408-3.10784 7.51104s-5.50912 3.10784-7.51104 3.10784l-103.168 0 0-69.12 103.168 0c2.00704 0 4.9408 0.54272 7.51104 3.11296s3.10784 5.504 3.10784 7.51616L865.41824 654.58176 865.41824 654.58176z"  ></path><path d="M315.97056 370.06848c55.05024-49.60256 185.7024-167.31136 189.75744-170.89024 5.1456-4.54144 11.38688-3.97824 15.30368-0.384 2.74432 2.51904 138.49088 124.7488 191.22688 172.2368 8.30464 6.99392 6.10304 20.74112-4.31616 20.74112s-377.85088 0.09728-384.43008 0S308.56192 379.35616 315.97056 370.06848z"  ></path></svg>