<svg width="150" height="150" id="icon-huojian" viewBox="0 0 1024 1024"><path d="M773.7152 569.16096c-12.32-21.6-11.67488-35.456-86.06464-102.60096 0.41472-242.7648-166.53952-411.09888-176.85504-421.26976 0-0.33024 0-0.49024 0-0.49024s-0.11008 0.10496-0.256 0.24576L510.29376 44.8c0 0 0 0.16512 0.00512 0.49024-10.27968 10.22464-176.46976 179.3152-174.95552 422.09024-74.09024 67.4752-73.37984 81.32992-85.59488 102.9952-22.31936 39.53536-16.5248 197.64352 4.51584 233.5232 21.03424 35.88096 55.91424 9.85088 67.86432-0.14976 11.9552-10.01344 64.70016-76 77.68448-73.03936 0 0 15.96544-3.03104 33.96608 13.89312 17.78432 16.7296 50.19008 32.43008 77.92384 34.66496 0 0.03072 0 0.06656-0.00512 0.0896 0.16512-0.0192 0.33024-0.03456 0.50048-0.04992 0.16 0.01024 0.34048 0.03072 0.50048 0.0448 0-0.0256-0.00512-0.05888 0-0.0896 27.72992-2.3552 60.05504-18.21312 77.76512-35.01824 17.92512-17.00992 33.90976-14.05184 33.90976-14.05184 12.96-3.02464 66.01472 62.72 78.00448 72.67968 12.00512 9.94944 46.99008 35.8208 67.8656-0.15488C791.12448 766.73536 796.2048 608.60032 773.7152 569.16096L773.7152 569.16096 773.7152 569.16096zM511.51488 475.95008c-46.30016 0.10496-83.91552-37.34016-84.02048-83.63904-0.10496-46.30528 37.34016-83.92576 83.64544-84.0256 46.30016-0.11008 83.92064 37.33504 84.02048 83.64032C595.26528 438.22592 557.81504 475.84 511.51488 475.95008L511.51488 475.95008 511.51488 475.95008zM573.65504 812.17024c-21.10464 15.89504-42.41536 21.2352-61.8304 21.0048-19.41504 0.31104-40.74496-4.92416-61.92512-20.71936-18.99392-13.5296-35.95904-11.68-44.91392 0.10496-8.95616 11.78368-5.79584 83.28832 5.21984 98.65344 11.00416 15.36 23.92448-10.00832 42.88512-10.96832 18.96448-0.94464 34.72 37.03936 41.90464 58.74432 3.66976 11.10016 9.39008 21.24544 17.15584 21.96992 7.7696-0.75904 13.45024-10.92992 17.06496-22.04416 7.09504-21.7408 22.68544-59.79008 41.63968-58.93504 18.9696 0.87424 32 26.17984 42.94528 10.7584 10.93504-15.40992 13.77024-86.9184 4.76544-98.67008C609.56032 800.32 592.59008 798.55104 573.65504 812.17024L573.65504 812.17024 573.65504 812.17024zM573.65504 812.17024"  ></path></svg>