<svg width="150" height="150" id="icon-peizhi" viewBox="0 0 1024 1024"><path d="M511.099222 365.825763c-80.7786 0-146.26579 65.482515-146.26579 146.259556 0 80.7786 65.48719 146.259556 146.26579 146.259556 80.777041 0 146.259556-65.480957 146.259556-146.259556C657.358779 431.308278 591.876263 365.825763 511.099222 365.825763L511.099222 365.825763zM511.099222 585.215097c-40.391637 0-73.136012-32.742816-73.136012-73.129778 0-40.391637 32.742816-73.129778 73.136012-73.129778 40.386962 0 73.129778 32.738141 73.129778 73.129778C584.229 552.472281 551.486184 585.215097 511.099222 585.215097L511.099222 585.215097zM511.099222 585.215097M900.893017 568.24369l-26.451395-15.268032c3.065451-27.021784 3.138697-54.472139 0.077922-81.822754l26.373473-15.225955c69.953678-40.391637 93.920921-129.844512 53.533959-199.799749-40.390079-69.95212-129.839837-93.925596-199.799749-53.533959l-26.373473 15.225955c-22.153219-16.330888-45.963059-29.99217-70.896534-40.843585l0-30.545416c0-80.777041-65.48719-146.259556-146.26579-146.259556-80.7786 0-146.259556 65.482515-146.259556 146.259556l0 30.515806c-12.377127 5.421811-24.587501 11.55583-36.562551 18.473743-11.97505 6.917913-23.396854 14.420242-34.277879 22.432179l-26.431136-15.258682c-69.958353-40.391637-159.406553-16.424395-199.79819 53.533959C27.378272 326.082437 51.343956 415.535311 121.299193 455.922273l26.449837 15.275825c-3.063892 27.020226-3.137139 54.465905-0.077922 81.822754l-26.373473 15.224397c-69.953678 40.391637-93.920921 129.841395-53.533959 199.799749 40.391637 69.95212 129.839837 93.920921 199.79819 53.533959l26.375032-15.224397c22.153219 16.32933 45.963059 29.984378 70.896534 40.843585l0 30.537624c0 80.7786 65.48719 146.26579 146.26579 146.26579 80.777041 0 146.259556-65.48719 146.259556-146.26579l0-30.515806c12.377127-5.415577 24.587501-11.55583 36.567226-18.467509 11.97505-6.917913 23.398412-14.420242 34.277879-22.432179l26.423343 15.258682c69.959912 40.391637 159.408111 16.418162 199.799749-53.533959C994.813938 698.085085 970.848254 608.635327 900.893017 568.24369L900.893017 568.24369zM891.096666 731.474653c-20.198936 34.982294-64.923035 46.962019-99.900654 26.770875l-63.331869-36.567226 0 0 0 0-7.988562-4.611422c-18.134004 18.450366-39.024886 34.787489-62.516805 48.353705-23.49971 13.559983-48.091888 23.482568-73.129778 29.964118l0 9.222846 0 0 0 65.828489 0 7.301289c0 40.391637-32.742816 73.136012-73.136012 73.136012-40.386962 0-73.129778-32.742816-73.129778-73.136012l0-7.402588 0-65.72719 0 0 0-9.300768c-50.682014-13.090892-97.855981-39.682547-135.652816-78.232109l-7.983886 4.606747 0 0-63.331869 36.567226c-34.977618 20.191144-79.706394 8.206743-99.900654-26.770875-20.192702-34.977618-8.206743-79.701718 26.770875-99.899095l6.341291-3.657657 0 0 64.972905-37.516316c-14.487254-52.005129-13.929333-106.151555 0.073247-156.593569l-8.057133-4.650384 0 0-63.331869-36.567226c-34.982294-20.192702-46.963578-64.923035-26.770875-99.900654 20.192702-34.97606 64.923035-46.962019 99.900654-26.763083l6.324148 3.649866 0 0 64.996282 37.528784c18.132445-18.450366 39.024886-34.790606 62.516805-48.353705 23.493477-13.559983 48.085654-23.485685 73.129778-29.964118l0-9.229079L437.960093 153.739276l0-7.309082c0-40.385404 32.742816-73.129778 73.129778-73.129778 40.391637 0 73.129778 32.744375 73.129778 73.129778l0 7.404147 0 65.72719 0 9.307001c50.686689 13.086217 97.862215 39.684106 135.657491 78.232109l48.487732-27.997368 22.828023-13.176607c34.977618-20.192702 79.701718-8.212977 99.89442 26.763083 20.198936 34.982294 8.212977 79.706394-26.764641 99.900654l-30.822819 17.79738-32.50905 18.769847 0 0 0 0-7.983886 4.605189c14.488813 52.009805 13.929333 106.159347-0.077922 156.599803l64.979139 37.511641 0 0 6.414537 3.701294C899.303409 651.772936 911.289368 696.498594 891.096666 731.474653L891.096666 731.474653zM891.096666 731.474653M197.330785 324.240361c-1.932465 3.232203-3.824411 6.497135-5.649343 9.785442L197.330785 324.240361 197.330785 324.240361zM197.330785 324.240361M830.515443 690.133926l-5.655577 9.804144C826.793889 696.699632 828.685835 693.433143 830.515443 690.133926L830.515443 690.133926zM830.515443 690.133926M505.297151 146.430195l11.304921 0C512.835324 146.369416 509.067017 146.374091 505.297151 146.430195L505.297151 146.430195zM505.297151 146.430195M516.898176 877.740444l-11.31583 0C509.350653 877.796547 513.125193 877.796547 516.898176 877.740444L516.898176 877.740444zM516.898176 877.740444"  ></path></svg>