<svg width="150" height="150" id="icon-svg" viewBox="0 0 1024 1024"><path d="M258.92380779 419.30285644h463.48571776a30.89904809 30.89904809 0 0 1 30.8990481 30.89904809v262.64190626a30.89904809 30.89904809 0 0 1-30.8990481 30.89904809H258.92380779v77.24761987a15.44952368 15.44952368 0 0 0 15.44952368 15.44952369h525.28381395a15.44952368 15.44952368 0 0 0 15.44952369-15.44952369V364.85873389L807.79904406 357.50476098h-91.6311264A71.00601196 71.00601196 0 0 1 645.16190569 286.49874901V193.83250404L638.9202985 187.55999756H274.37333147a15.44952368 15.44952368 0 0 0-15.44952368 15.44952369v216.29333519zM212.575236 743.74285888H150.77714054a30.89904809 30.89904809 0 0 1-30.89904809-30.89904809V450.20190453a30.89904809 30.89904809 0 0 1 30.89904809-30.89904809h61.79809547V203.00952125a61.79809547 61.79809547 0 0 1 61.79809546-61.79809547h383.84342218L861.45524089 345.76312232V820.99047875a61.79809547 61.79809547 0 0 1-61.79809547 61.79809547H274.37333147a61.79809547 61.79809547 0 0 1-61.79809546-61.79809547v-77.24761987z m44.44828034-264.24865698c-19.86808801 0-36.1364367 4.72755432-49.03678894 14.46075439-13.92002081 10.01129151-20.64056373 23.91586304-20.64056372 41.43562317s6.96773505 30.8681488 21.16584729 40.04516601c5.40733361 3.33709717 19.62089514 8.89892578 42.31624604 16.68548585 20.3779223 6.67419434 32.24315667 11.12365723 35.85834527 13.07029724 11.35540009 6.11801148 17.28801728 14.4607544 17.28801727 25.02822876 0 8.34274292-4.12502289 14.73884583-11.86523437 19.74449158-7.74021149 4.72755432-18.58577729 7.23037719-31.99596382 7.23037719-15.21778083 0-26.32598877-3.05900573-33.54091667-8.62083435-8.00285363-6.39610291-12.90035224-17.2416687-14.97058869-32.25860596H181.67618792c1.29776001 25.30632019 9.81044794 43.66035461 25.2908709 55.34019471 12.63771081 9.45510864 30.43556237 14.18266297 53.14636254 14.18266296 23.48327661 0 41.79096246-5.28373718 54.69131471-15.29502869 12.90035224-10.28938294 19.35825372-24.4720459 19.358253-42.26989745 0-18.35403443-8.00285363-32.53669739-23.99311018-42.82608033-7.23037719-4.44946289-23.22063446-11.12365723-48.24886322-19.46640014-17.02537513-5.83992005-27.6082995-10.01129151-31.48613024-12.23602296-8.75988007-5.00564575-12.90035224-11.95793152-12.90035225-20.30067443 0-9.45510864 3.6151886-16.40739441 11.3554001-20.57876587 6.19525933-3.6151886 14.97058868-5.28373718 26.5731809-5.28373718 13.42563653 0 23.74591803 2.50282287 30.45101166 8.06465148 6.70509362 5.28373718 11.60259222 14.18266297 14.18266296 26.41868592h29.94117737c-1.8075943-21.69113159-9.28516364-37.82043458-22.20096588-48.10981751-12.11242652-9.73320007-29.15325165-14.4607544-50.82893324-14.46075439z m86.16199494 3.89328003L408.72239177 681.94476343h36.38362884l65.53688049-198.5572815h-32.75299096l-50.5817411 161.84921265h-0.77247643l-50.5817411-161.84921265h-32.75299096z m266.79782843-3.89328003c-27.34565735 0-49.02133966 10.01129151-65.02704621 30.59005737-15.21778083 19.18830872-22.71080017 43.66035461-22.71080016 73.4161377 0 29.47769165 7.49301935 53.67164612 22.71080016 72.30377196 16.2528994 20.02258301 38.96369958 30.03387451 68.37959338 30.03387452 16.51554083 0 31.2080381-2.22473145 44.63367463-6.67419434A104.16069007 104.16069007 0 0 0 691.51047746 660.25363183V576.27001977h-78.94706702v27.80914306h48.75869751v40.87944031c-6.17980933 3.89328003-12.63771081 6.95228576-19.868088 9.17701722a89.28279852 89.28279852 0 0 1-24.76558662 3.33709716c-22.44815802 0-38.96369958-6.67419434-49.54662323-20.022583-9.79499793-12.51411438-14.70794654-30.59005737-14.70794654-53.94973755 0-24.4720459 5.4227829-43.10417175 16.53099013-56.45256043 10.04219079-12.79220581 23.73046875-18.91021729 41.01848602-18.91021728 13.92002081 0 25.27542091 3.05900573 33.78810883 9.45510863 8.26549506 6.39610291 13.93547082 15.85121154 16.53099084 28.64341737h30.43556236c-3.35254645-22.24731445-11.61804223-38.65470886-24.76558733-49.77836609-13.67282868-11.40174865-32.25860596-16.96357727-55.9890747-16.96357727z"  ></path></svg>