<svg width="150" height="150" id="icon-zujian" viewBox="0 0 1024 1024"><path d="M640 810.24A127.872 127.872 0 0 0 512 682.666667c-70.698667 0-128 57.301333-128 127.573333V853.333333H213.333333v-170.666666h43.093334A127.872 127.872 0 0 0 384 554.666667c0-70.698667-57.301333-128-127.573333-128H213.333333V341.333333h213.333334V170.666667c0-23.722667 18.901333-42.666667 42.666666-42.666667 23.722667 0 42.666667 18.901333 42.666667 42.666667v170.666666h213.333333v213.333334h170.837334C896 554.666667 896 639.573333 896 639.573333c0 0.554667-170.666667 0.426667-170.666667 0.426667v213.333333h-85.333333v-43.093333zM810.666667 938.666667v-213.333334h85.504A85.205333 85.205333 0 0 0 981.333333 639.573333v-84.48c0-47.232-37.973333-85.76-85.162666-85.76H810.666667V256h-213.333334V170.666667c0-70.954667-57.216-128-128-128-70.912 0-128 57.173333-128 128v85.333333H128v256h170.666667v85.333333H128v341.333334h341.333333v-170.666667h85.333334v170.666667h256z"  ></path></svg>